<svg version="1.1" xmlns="http://www.w3.org/2000/svg" xmlns:xlink="http://www.w3.org/1999/xlink" width="16" height="16" viewBox="0 0 16 16">
<path id="plus-gray" d="M15.000,9.000 C15.000,9.000 9.000,9.000 9.000,9.000 C9.000,9.000 9.000,15.000 9.000,15.000 C9.000,15.552 8.552,16.000 8.000,16.000 C7.448,16.000 7.000,15.552 7.000,15.000 C7.000,15.000 7.000,9.000 7.000,9.000 C7.000,9.000 1.000,9.000 1.000,9.000 C0.448,9.000 -0.000,8.552 -0.000,8.000 C-0.000,7.448 0.448,7.000 1.000,7.000 C1.000,7.000 7.000,7.000 7.000,7.000 C7.000,7.000 7.000,1.000 7.000,1.000 C7.000,0.448 7.448,-0.000 8.000,-0.000 C8.552,-0.000 9.000,0.448 9.000,1.000 C9.000,1.000 9.000,7.000 9.000,7.000 C9.000,7.000 15.000,7.000 15.000,7.000 C15.552,7.000 16.000,7.448 16.000,8.000 C16.000,8.552 15.552,9.000 15.000,9.000 z" fill="#3e6594" />
</svg>
