<?xml version="1.0" encoding="iso-8859-1"?>
<!-- Generator: Adobe Illustrator 18.1.1, SVG Export Plug-In . SVG Version: 6.00 Build 0)  -->
<svg xmlns="http://www.w3.org/2000/svg" xmlns:xlink="http://www.w3.org/1999/xlink" version="1.1" id="Capa_1" x="0px" y="0px" viewBox="0 0 486 486" style="enable-background:new 0 0 486 486;" xml:space="preserve" width="512px" height="512px">
<g>
	<path d="M452.5,285c15,0,27,12,27,27v147c0,15-12,27-27,27h-418c-15,0-28-12-28-27V312c0-15,13-27,28-27   s27,12,27,27v119h364V312C425.5,297,437.5,285,452.5,285z" fill="#3e6594"/>
	<path d="M224.5,346l-110-110c-11-11-11-27,0-38s27-11,38,0l64,63V27c0-15,12-27,27-27s27,12,27,27v234l63-63   c11-11,28-11,39,0s11,27,0,38l-110,110c-5,5-12,8-19,8S229.5,351,224.5,346z" fill="#3e6594"/>
</g>
<g>
</g>
<g>
</g>
<g>
</g>
<g>
</g>
<g>
</g>
<g>
</g>
<g>
</g>
<g>
</g>
<g>
</g>
<g>
</g>
<g>
</g>
<g>
</g>
<g>
</g>
<g>
</g>
<g>
</g>
</svg>
