<?xml version="1.0" encoding="utf-8"?>
<!-- Generator: Adobe Illustrator 18.1.1, SVG Export Plug-In . SVG Version: 6.00 Build 0)  -->
<svg version="1.1" id="Capa_1" xmlns="http://www.w3.org/2000/svg" xmlns:xlink="http://www.w3.org/1999/xlink" x="0px" y="0px"
	 viewBox="240 -240 512 512" enable-background="new 240 -240 512 512" xml:space="preserve">
<g>
	<path fill="#999999" d="M739-217c-9.1-3.8-16.9-2.2-23.3,4.7l-43.3,43c-23.8-22.4-50.9-39.8-81.5-52.2
		C560.3-233.8,528.7-240,496-240c-34.7,0-67.8,6.8-99.3,20.3c-31.6,13.6-58.8,31.8-81.7,54.7c-22.9,22.9-41.1,50.1-54.7,81.7
		C246.8-51.8,240-18.7,240,16c0,34.7,6.8,67.8,20.3,99.3c13.6,31.6,31.8,58.8,54.7,81.7c22.9,22.9,50.1,41.1,81.7,54.7
		c31.6,13.6,64.7,20.3,99.3,20.3c38.2,0,74.6-8.1,109-24.2c34.4-16.1,63.8-38.8,88-68.2c1.8-2.2,2.6-4.7,2.5-7.5
		c-0.1-2.8-1.2-5.1-3.2-6.8l-45.7-46c-2.5-2-5.2-3-8.3-3c-3.6,0.4-6.1,1.8-7.7,4c-16.2,21.1-36.1,37.4-59.7,49
		c-23.6,11.6-48.6,17.3-75,17.3c-23.1,0-45.2-4.5-66.2-13.5c-21-9-39.2-21.2-54.5-36.5c-15.3-15.3-27.5-33.5-36.5-54.5
		c-9-21-13.5-43.1-13.5-66.2c0-23.1,4.5-45.2,13.5-66.2c9-21,21.2-39.2,36.5-54.5c15.3-15.3,33.5-27.5,54.5-36.5
		c21-9,43.1-13.5,66.2-13.5c44.7,0,83.4,15.2,116.3,45.7l-46,46c-6.9,6.7-8.4,14.3-4.7,23c3.8,8.9,10.3,13.3,19.7,13.3h149.3
		c5.8,0,10.8-2.1,15-6.3c4.2-4.2,6.3-9.2,6.3-15v-149.3C752-206.7,747.7-213.2,739-217z"/>
</g>
</svg>
