<?xml version="1.0" encoding="utf-8"?>
<!-- Generator: Adobe Illustrator 18.1.1, SVG Export Plug-In . SVG Version: 6.00 Build 0)  -->
<svg version="1.1" id="Capa_1" xmlns="http://www.w3.org/2000/svg" xmlns:xlink="http://www.w3.org/1999/xlink" x="0px" y="0px"
	 viewBox="240 -240 512 512" enable-background="new 240 -240 512 512" xml:space="preserve">
<path fill="#999999" d="M748.2,8.7L505.7-162c-2.7-1.9-6.3-2.2-9.3-0.6c-3,1.5-4.8,4.6-4.8,8V5L254.1-161.9
	c-2.7-1.9-6.3-2.2-9.3-0.6c-3,1.5-4.8,4.6-4.8,8v341.1c0,3.4,1.9,6.4,4.8,8c1.3,0.7,2.7,1,4.1,1c1.8,0,3.6-0.6,5.2-1.6L491.5,27
	v159.7c0,3.4,1.9,6.4,4.8,8c1.3,0.7,2.7,1,4.1,1c1.8,0,3.6-0.6,5.2-1.6L748.2,23.3c2.4-1.7,3.8-4.4,3.8-7.3S750.6,10.3,748.2,8.7z"
	/>
</svg>
