<?xml version="1.0" encoding="utf-8"?>
<!-- Generator: Adobe Illustrator 18.1.1, SVG Export Plug-In . SVG Version: 6.00 Build 0)  -->
<svg version="1.1" id="Capa_1" xmlns="http://www.w3.org/2000/svg" xmlns:xlink="http://www.w3.org/1999/xlink" x="0px" y="0px"
	 viewBox="0 0 32 32" enable-background="new 0 0 32 32" xml:space="preserve">
<g>
	<g>
		<path fill="#cccccc" d="M13.5,4.6c-0.3,0-0.6,0.1-0.9,0.4l-6.4,6.4h-5c-0.3,0-0.6,0.1-0.9,0.4C0.1,12,0,12.3,0,12.6V20
			c0,0.3,0.1,0.6,0.4,0.9c0.2,0.2,0.5,0.4,0.9,0.4h5l6.4,6.4c0.2,0.2,0.5,0.4,0.9,0.4s0.6-0.1,0.9-0.4c0.2-0.2,0.4-0.5,0.4-0.9V5.9
			c0-0.3-0.1-0.6-0.4-0.9C14.2,4.8,13.9,4.6,13.5,4.6z"/>
		<path fill="#cccccc" d="M21.3,19.1c0.5-0.8,0.8-1.7,0.8-2.7s-0.3-1.9-0.8-2.7c-0.5-0.8-1.3-1.4-2.2-1.8c-0.1-0.1-0.3-0.1-0.5-0.1
			c-0.3,0-0.6,0.1-0.9,0.4c-0.2,0.2-0.4,0.5-0.4,0.9c0,0.3,0.1,0.5,0.2,0.7s0.3,0.3,0.6,0.5s0.4,0.3,0.7,0.4
			c0.2,0.2,0.4,0.4,0.6,0.7c0.2,0.3,0.2,0.7,0.2,1.1c0,0.4-0.1,0.8-0.2,1.1c-0.2,0.3-0.3,0.5-0.6,0.7c-0.2,0.2-0.4,0.3-0.7,0.4
			c-0.2,0.1-0.4,0.3-0.6,0.5c-0.2,0.2-0.2,0.4-0.2,0.7c0,0.3,0.1,0.6,0.4,0.9c0.2,0.2,0.5,0.4,0.9,0.4c0.2,0,0.3,0,0.5-0.1
			C20.1,20.5,20.8,19.9,21.3,19.1z"/>
		<path fill="#cccccc" d="M25.4,21.8c1.1-1.7,1.6-3.5,1.6-5.4s-0.5-3.8-1.6-5.4c-1.1-1.7-2.5-2.9-4.3-3.6c-0.2-0.1-0.3-0.1-0.5-0.1
			c-0.3,0-0.6,0.1-0.9,0.4c-0.2,0.2-0.4,0.5-0.4,0.9c0,0.5,0.3,0.9,0.8,1.1c0.7,0.4,1.2,0.7,1.5,0.8c1,0.7,1.7,1.6,2.2,2.6
			s0.8,2.2,0.8,3.3s-0.3,2.3-0.8,3.3c-0.5,1-1.3,1.9-2.2,2.6c-0.3,0.2-0.7,0.5-1.5,0.8c-0.5,0.3-0.8,0.6-0.8,1.1
			c0,0.3,0.1,0.6,0.4,0.9c0.2,0.2,0.5,0.4,0.9,0.4c0.2,0,0.3,0,0.5-0.1C22.9,24.6,24.3,23.4,25.4,21.8z"/>
		<path fill="#cccccc" d="M29.6,8.2c-1.6-2.5-3.8-4.3-6.5-5.4c-0.2-0.1-0.3-0.1-0.5-0.1c-0.3,0-0.6,0.1-0.9,0.4
			c-0.2,0.2-0.4,0.5-0.4,0.9c0,0.5,0.3,0.8,0.8,1.1c0.1,0.1,0.2,0.1,0.4,0.2s0.3,0.1,0.4,0.2c0.6,0.3,1.1,0.6,1.6,1
			c1.6,1.2,2.8,2.6,3.7,4.4c0.9,1.8,1.3,3.6,1.3,5.6s-0.4,3.8-1.3,5.6c-0.9,1.7-2.1,3.2-3.7,4.4c-0.5,0.3-1,0.7-1.6,1
			c-0.1,0.1-0.2,0.1-0.4,0.2s-0.3,0.1-0.4,0.2c-0.5,0.3-0.8,0.7-0.8,1.1c0,0.3,0.1,0.6,0.4,0.9c0.2,0.2,0.5,0.4,0.9,0.4
			c0.2,0,0.3,0,0.5-0.1c2.7-1.2,4.9-3,6.5-5.5c1.6-2.5,2.4-5.2,2.4-8.1S31.2,10.7,29.6,8.2z"/>
	</g>
</g>
</svg>
