<svg id="Capa_1" enable-background="new 0 0 512 512" height="512" viewBox="0 0 512 512" width="512" xmlns="http://www.w3.org/2000/svg"><g><g><path d="m256 358.682h-22.439c-7.679 0-12.478-8.313-8.639-14.963l11.22-19.433 19.858-34.396 19.858 34.396 11.22 19.433c3.84 6.65-.96 14.963-8.639 14.963z" fill="#fe5694"/><path d="m98.821 34.886c-36.515 36.515-36.515 95.717 0 132.231l133.961 133.961 16.357 14.809c3.79 3.789 9.933 3.789 13.723 0l147.222-148.77c36.514-36.514 38.062-92.621 1.548-129.135-24.213-24.214-56.855-35.466-87.79-27.567-15.716 4.013-30.592 12.17-42.893 24.471l-24.949 24.948-24.948-24.948c-36.514-36.515-95.716-36.515-132.231 0z" fill="#fe76a8"/><g><path d="m413.179 34.886c-24.213-24.214-58.399-32.352-89.334-24.453 15.716 4.013 30.596 12.152 42.897 24.453 36.515 36.515 36.515 95.717 0 132.231l-133.96 133.961 16.357 16.357c3.79 3.789 9.933 3.789 13.723 0l150.317-150.318c36.515-36.514 36.515-95.716 0-132.231z" fill="#fe5694"/></g></g><g><path d="m313.428 256.781-55.351 55.352c-.533.533-1.141.645-1.558.645-.416 0-1.024-.112-1.558-.646l-106.093-106.094c-2.929-2.929-7.678-2.929-10.607 0s-2.929 7.678 0 10.606l96.322 96.322c-.152.209-.294.428-.426.656l-15.211 26.346c-3.159 5.471-3.159 12.004 0 17.475s8.816 8.738 15.134 8.738h15.093v50.853c0 12.437 10.119 22.555 22.555 22.555h28.063c4.166 0 7.555 3.389 7.555 7.555v57.356c0 4.142 3.357 7.5 7.5 7.5s7.5-3.358 7.5-7.5v-57.356c0-12.436-10.118-22.555-22.555-22.555h-28.063c-4.166 0-7.556-3.389-7.556-7.555v-50.853h14.786c6.317 0 11.976-3.267 15.134-8.738 3.159-5.471 3.159-12.004 0-17.475l-15.209-26.343c-.133-.23-.276-.449-.428-.659l45.579-45.58c2.929-2.929 2.929-7.678 0-10.606-2.929-2.929-7.677-2.927-10.606.001zm-32.325 90.688c.622 1.076.267 2.012 0 2.475s-.9 1.238-2.144 1.238h-44.879c-1.243 0-1.876-.775-2.144-1.238-.267-.462-.621-1.398 0-2.475l13.639-23.623c3.075 2.545 6.902 3.932 10.944 3.932s7.87-1.387 10.944-3.931z"/><path d="m441.134 107.852c-4.092-.63-7.923 2.18-8.551 6.275-2.787 18.161-11.151 34.65-24.188 47.687l-71.854 71.855c-2.929 2.929-2.929 7.678 0 10.606 1.465 1.464 3.385 2.197 5.304 2.197s3.839-.732 5.304-2.197l71.854-71.854c15.309-15.31 25.132-34.68 28.407-56.018.628-4.095-2.181-7.923-6.276-8.551z"/><path d="m104.644 161.814c-33.532-33.532-33.531-88.093.001-121.624 16.243-16.244 37.84-25.19 60.812-25.19s44.568 8.946 60.812 25.189l24.948 24.948c1.406 1.407 3.314 2.197 5.303 2.197s3.896-.79 5.304-2.197l24.947-24.948c33.531-33.533 88.093-33.531 121.624 0 12.078 12.078 20.215 27.276 23.531 43.953.807 4.062 4.747 6.701 8.818 5.893 4.063-.808 6.701-4.756 5.893-8.819-3.897-19.596-13.453-37.451-27.636-51.633-39.381-39.381-103.458-39.379-142.839 0l-19.642 19.645-19.645-19.645c-19.076-19.077-44.44-29.583-71.419-29.583s-52.342 10.506-71.419 29.583c-39.38 39.38-39.38 103.457 0 142.837l20.646 20.645c1.464 1.464 3.384 2.197 5.303 2.197 1.92 0 3.839-.732 5.303-2.197 2.929-2.929 2.929-7.678 0-10.606z"/></g></g></svg>