<svg id="Capa_1" enable-background="new 0 0 512 512" height="512" viewBox="0 0 512 512" width="512" xmlns="http://www.w3.org/2000/svg"><g><g><path clip-rule="evenodd" d="m247.667 393.598-218.312 42.492v35.037c0 2.721 2.211 4.961 4.932 4.961h443.397c2.721 0 4.961-2.239 4.961-4.961v-35.037z" fill="#6a5c6b" fill-rule="evenodd"/></g><g><path clip-rule="evenodd" d="m326.002 122.938h-70.045l-13.124 21.147 13.124 25.711 35.745 15.534 34.3-15.534 14.57-25.938z" fill="#d9eeff" fill-rule="evenodd"/></g><g><path clip-rule="evenodd" d="m185.97 122.938h-46.573c-12.898 0-23.443 10.545-23.443 23.415v22.763c0 .369.312.68.709.68l30.217 15.534 39.09-15.534 10.602-24.265z" fill="#d9eeff" fill-rule="evenodd"/></g><g><path clip-rule="evenodd" d="m372.604 122.938h-46.602v46.858l35.008 15.534 34.328-15.534c.34-.17.68-.312.68-.68v-22.763c0-12.87-10.545-23.415-23.414-23.415z" fill="#fe8d94" fill-rule="evenodd"/></g><g><path clip-rule="evenodd" d="m255.957 122.938h-69.987v46.858l31.635 15.534 38.352-15.534z" fill="#eff6ff" fill-rule="evenodd"/></g><g><path clip-rule="evenodd" d="m441.23 76.08v103.723h40.025v-109.931c0-18.681-15.307-33.96-33.988-33.96h-382.564c-18.68 0-33.959 15.279-33.959 33.96v109.931h39.997v-103.723z" fill="#eff6ff" fill-rule="evenodd"/></g><g><path clip-rule="evenodd" d="m461.243 169.796h20.013v-99.924c0-18.681-15.307-33.96-33.988-33.96h-26.873c18.68 0 40.847 15.279 40.847 33.96v99.924z" fill="#d9eeff" fill-rule="evenodd"/></g><g><path clip-rule="evenodd" d="m116.663 169.796h-45.922-39.997-17.801c-3.005 0-5.443 2.438-5.443 5.443v255.409c0 2.976 2.438 5.443 5.443 5.443h16.413 453.29 16.413c2.976 0 5.443-2.466 5.443-5.443v-255.41c0-3.005-2.466-5.443-5.443-5.443h-17.802-40.027-45.893-69.336-70.044-69.987-69.307z" fill="#7e707d" fill-rule="evenodd"/></g><g><path clip-rule="evenodd" d="m504.5 430.648v-255.41c0-3.005-2.466-5.443-5.443-5.443h-17.802-2.211c3.005 0 5.443 2.438 5.443 5.443v255.409c0 2.976-2.438 5.443-5.443 5.443h3.6 16.413c2.977 0 5.443-2.466 5.443-5.442z" fill="#6a5c6b" fill-rule="evenodd"/></g><g><path clip-rule="evenodd" d="m29.355 436.09h453.29v19.985h-453.29z" fill="#584657" fill-rule="evenodd"/></g><g><path clip-rule="evenodd" d="m317.583 366.526-60.662-15.421-62.504 15.421v69.564h123.166z" fill="#9fd4fe" fill-rule="evenodd"/></g><g><path clip-rule="evenodd" d="m290.314 366.526h27.269v69.564h-27.269z" fill="#85beef" fill-rule="evenodd"/></g><g><path clip-rule="evenodd" d="m356.474 203.699h-200.948c-2.636 0-4.791 2.154-4.791 4.791v35.859c0 2.665 2.154 4.819 4.791 4.819h200.949c2.636 0 4.791-2.154 4.791-4.819v-35.859c-.001-2.636-2.155-4.791-4.792-4.791z" fill="#9fd4fe" fill-rule="evenodd"/></g><g><path clip-rule="evenodd" d="m312.509 284.404h-113.018c-2.806 0-5.074 2.296-5.074 5.074v36.001l60.633 10.772 62.533-10.772v-36.001c0-2.778-2.296-5.074-5.074-5.074z" fill="#9fd4fe" fill-rule="evenodd"/></g><g><path clip-rule="evenodd" d="m194.417 325.479h123.166v41.047h-123.166z" fill="#fde588" fill-rule="evenodd"/></g><g><path clip-rule="evenodd" d="m411.041 283.072c-32.882 0-59.556 26.646-59.556 59.558 0 32.883 26.674 59.529 59.556 59.529s59.556-26.646 59.556-59.529c.001-32.912-26.674-59.558-59.556-59.558z" fill="#eff6ff" fill-rule="evenodd"/></g><g><path clip-rule="evenodd" d="m411.041 319.47c-12.784 0-23.159 10.375-23.159 23.16s10.375 23.131 23.159 23.131 23.131-10.347 23.131-23.131-10.346-23.16-23.131-23.16z" fill="#fde588" fill-rule="evenodd"/></g><g><path clip-rule="evenodd" d="m447.864 203.699c-12.558 0-22.734 10.177-22.734 22.735s10.176 22.735 22.734 22.735 22.734-10.177 22.734-22.735-10.177-22.735-22.734-22.735z" fill="#fde588" fill-rule="evenodd"/></g><g><path clip-rule="evenodd" d="m64.136 203.699c-12.558 0-22.734 10.177-22.734 22.735s10.176 22.735 22.734 22.735 22.734-10.177 22.734-22.735-10.176-22.735-22.734-22.735z" fill="#fde588" fill-rule="evenodd"/></g><g><path clip-rule="evenodd" d="m100.959 283.072c-32.91 0-59.556 26.646-59.556 59.558 0 32.883 26.646 59.529 59.556 59.529 32.882 0 59.528-26.646 59.528-59.529-.001-32.912-26.646-59.558-59.528-59.558z" fill="#eff6ff" fill-rule="evenodd"/></g><g><path clip-rule="evenodd" d="m100.959 319.47c-12.784 0-23.159 10.375-23.159 23.16s10.375 23.131 23.159 23.131 23.131-10.347 23.131-23.131-10.347-23.16-23.131-23.16z" fill="#fde588" fill-rule="evenodd"/></g><g><path clip-rule="evenodd" d="m356.474 249.168c2.636 0 4.791-2.154 4.791-4.819v-35.859c0-2.636-2.154-4.791-4.791-4.791h-27.269c2.636 0 4.791 2.154 4.791 4.791v35.859c0 2.665-2.154 4.819-4.791 4.819z" fill="#85beef" fill-rule="evenodd"/></g><g><path clip-rule="evenodd" d="m317.583 325.479v-36.001c0-2.778-2.296-5.074-5.074-5.074h-27.269c2.806 0 5.074 2.296 5.074 5.074v36.001z" fill="#85beef" fill-rule="evenodd"/></g><g><path clip-rule="evenodd" d="m290.314 325.479h27.269v41.047h-27.269z" fill="#fdd76f" fill-rule="evenodd"/></g><g><path clip-rule="evenodd" d="m160.486 342.629c0-32.911-26.646-59.558-59.528-59.558-2.778 0-5.528.198-8.192.567 26.617 5.925 46.545 29.68 46.545 58.112 0 30.105-22.365 54.994-51.364 58.991 4.195.935 8.532 1.417 13.011 1.417 32.883.001 59.528-26.646 59.528-59.529z" fill="#d9eeff" fill-rule="evenodd"/></g><g><path clip-rule="evenodd" d="m411.041 402.159c32.882 0 59.556-26.646 59.556-59.529 0-32.911-26.674-59.558-59.556-59.558-2.778 0-5.528.198-8.192.567 26.617 5.925 46.545 29.68 46.545 58.112 0 30.105-22.337 54.994-51.364 58.991 4.196.935 8.533 1.417 13.011 1.417z" fill="#d9eeff" fill-rule="evenodd"/></g><g><path clip-rule="evenodd" d="m100.959 365.761c12.784 0 23.131-10.347 23.131-23.131s-10.346-23.16-23.131-23.16c-1.417 0-2.806.142-4.139.369 8.306 3.515 14.117 11.736 14.117 21.317 0 11.367-8.22 20.835-19.021 22.791 2.778 1.162 5.839 1.814 9.043 1.814z" fill="#fdd76f" fill-rule="evenodd"/></g><g><path clip-rule="evenodd" d="m411.041 365.761c12.784 0 23.131-10.347 23.131-23.131s-10.346-23.16-23.131-23.16c-1.417 0-2.778.142-4.139.369 8.306 3.515 14.117 11.736 14.117 21.317 0 11.367-8.192 20.835-19.021 22.791 2.779 1.162 5.84 1.814 9.043 1.814z" fill="#fdd76f" fill-rule="evenodd"/></g><g><path d="m100.959 409.659c36.959 0 67.027-30.069 67.027-67.029 0-36.976-30.068-67.058-67.027-67.058-36.976 0-67.057 30.082-67.057 67.058 0 36.959 30.081 67.029 67.057 67.029zm0-119.087c28.688 0 52.027 23.353 52.027 52.058 0 28.689-23.34 52.029-52.027 52.029-28.704 0-52.057-23.34-52.057-52.029 0-28.705 23.353-52.058 52.057-52.058z"/><path d="m100.959 373.261c16.89 0 30.63-13.741 30.63-30.631 0-16.906-13.74-30.66-30.63-30.66-16.905 0-30.659 13.754-30.659 30.66 0 16.89 13.754 30.631 30.659 30.631zm0-46.291c8.618 0 15.63 7.025 15.63 15.66 0 8.619-7.012 15.631-15.63 15.631-8.635 0-15.659-7.012-15.659-15.631 0-8.635 7.024-15.66 15.659-15.66z"/><path d="m343.985 342.629c0 36.96 30.081 67.029 67.056 67.029 36.976 0 67.057-30.069 67.057-67.029 0-36.976-30.081-67.058-67.057-67.058-36.975.001-67.056 30.083-67.056 67.058zm67.056-52.057c28.704 0 52.057 23.353 52.057 52.058 0 28.689-23.353 52.029-52.057 52.029-28.703 0-52.056-23.34-52.056-52.029 0-28.705 23.353-52.058 52.056-52.058z"/><path d="m155.521 256.668 83.169.057h.005c4.14 0 7.497-3.354 7.5-7.495.003-4.142-3.353-7.502-7.495-7.505l-80.464-.055v-30.471h195.529v30.471l-80.464.055c-4.143.003-7.498 3.363-7.495 7.505.003 4.141 3.359 7.496 7.5 7.495h.005l83.164-.057c6.776 0 12.29-5.526 12.29-12.319v-35.859c0-6.777-5.514-12.291-12.29-12.291h-200.95c-6.776 0-12.29 5.514-12.29 12.291v35.859c0 6.793 5.514 12.319 12.286 12.319z"/><path d="m447.863 256.668c16.671 0 30.234-13.563 30.234-30.235s-13.563-30.234-30.234-30.234-30.233 13.563-30.233 30.234 13.562 30.235 30.233 30.235zm0-45.469c8.4 0 15.234 6.834 15.234 15.234s-6.834 15.235-15.234 15.235c-8.399 0-15.233-6.834-15.233-15.235s6.834-15.234 15.233-15.234z"/><path d="m64.137 256.668c16.671 0 30.233-13.563 30.233-30.235s-13.562-30.234-30.233-30.234-30.234 13.563-30.234 30.234 13.563 30.235 30.234 30.235zm0-45.469c8.399 0 15.233 6.834 15.233 15.234s-6.834 15.235-15.233 15.235c-8.4 0-15.234-6.834-15.234-15.235s6.833-15.234 15.234-15.234z"/><path d="m499.058 162.296h-10.302v-92.424c0-22.861-18.611-41.46-41.487-41.46h-382.566c-22.86 0-41.459 18.599-41.459 41.46v92.424h-10.302c-7.136 0-12.942 5.806-12.942 12.942v255.41c0 7.137 5.806 12.942 12.942 12.942h8.913v27.538c0 6.871 5.577 12.46 12.432 12.46h443.397c6.87 0 12.46-5.59 12.46-12.46v-27.538h8.913c7.137 0 12.942-5.806 12.942-12.942v-255.41c.001-7.136-5.805-12.942-12.941-12.942zm-460.814-92.424c0-14.59 11.869-26.46 26.459-26.46h382.565c14.605 0 26.487 11.87 26.487 26.46v92.424h-25.025v-86.216c0-4.142-3.357-7.5-7.5-7.5h-167.641c-4.143 0-7.5 3.358-7.5 7.5s3.357 7.5 7.5 7.5h160.141v78.716h-30.213v-15.943c0-17.046-13.868-30.915-30.914-30.915h-233.207c-17.062 0-30.942 13.869-30.942 30.915v15.943h-30.213v-78.716h160.708c4.143 0 7.5-3.358 7.5-7.5s-3.357-7.5-7.5-7.5h-168.208c-4.143 0-7.5 3.358-7.5 7.5v86.216h-24.997zm350.274 76.481v15.943h-55.016v-31.858h39.102c8.775 0 15.914 7.139 15.914 15.915zm-70.016-15.915v31.858h-55.045v-31.858zm-70.045 0v31.858h-54.987v-31.858zm-69.987 0v31.858h-55.016v-15.943c0-8.775 7.151-15.915 15.942-15.915zm296.675 338.15h-438.29v-24.998h438.289v24.998zm-165.062-135.609v26.047h-108.166v-26.047zm-108.166-15v-26.076h108.166v26.076zm108.166 56.047v54.564h-108.166v-54.564zm186.917 54.564h-171.917v-139.112c0-6.934-5.641-12.574-12.574-12.574h-113.018c-6.934 0-12.574 5.641-12.574 12.574v139.112h-171.917v-251.294h482z"/><path d="m411.041 373.261c16.89 0 30.631-13.741 30.631-30.631 0-16.906-13.741-30.66-30.631-30.66-16.905 0-30.659 13.754-30.659 30.66 0 16.89 13.754 30.631 30.659 30.631zm0-46.291c8.619 0 15.631 7.025 15.631 15.66 0 8.619-7.012 15.631-15.631 15.631-8.635 0-15.659-7.012-15.659-15.631 0-8.635 7.024-15.66 15.659-15.66z"/></g></g></svg>