<svg id="Capa_1" enable-background="new 0 0 512.032 512.032" height="512" viewBox="0 0 512.032 512.032" width="512" xmlns="http://www.w3.org/2000/svg"><g><g><path clip-rule="evenodd" d="m256.068 294.176c2.268 2.268 6.009 2.268 8.277 0l24.718-24.719-37.304-37.305-24.718 24.719c-2.296 2.268-2.268 5.981 0 8.249z" fill="#7e707d" fill-rule="evenodd"/></g><g><path clip-rule="evenodd" d="m251.759 232.152 37.304 37.305 12.784-12.784 16.101-16.073-37.332-37.334-10.177 10.177z" fill="#7e707d" fill-rule="evenodd"/></g><g><path clip-rule="evenodd" d="m280.616 203.266 37.332 37.334 28.857-28.886-37.333-37.305z" fill="#7e707d" fill-rule="evenodd"/></g><g><path clip-rule="evenodd" d="m309.472 174.409 37.333 37.305 28.857-28.858-37.305-37.305z" fill="#7e707d" fill-rule="evenodd"/></g><g><path clip-rule="evenodd" d="m351.033 123.397h40.81v52.757h-40.81z" fill="#7e707d" fill-rule="evenodd" transform="matrix(.707 -.707 .707 .707 2.883 306.509)"/></g><g><path clip-rule="evenodd" d="m367.214 116.694 37.304 37.305 28.857-28.858-14.74-14.741-22.564-22.564z" fill="#7e707d" fill-rule="evenodd"/></g><g><path clip-rule="evenodd" d="m276.874 257.239-24.718 24.747c-2.268 2.268-5.953 2.268-8.22.028l12.132 12.161c2.268 2.268 6.009 2.268 8.277 0l24.718-24.719z" fill="#6a5c6b" fill-rule="evenodd"/></g><g><path clip-rule="evenodd" d="m276.874 257.239 12.189 12.218 12.784-12.784 16.101-16.073-12.217-12.218-16.073 16.101z" fill="#6a5c6b" fill-rule="evenodd"/></g><g><path clip-rule="evenodd" d="m305.731 228.382 12.217 12.218 28.857-28.886-12.218-12.19z" fill="#6a5c6b" fill-rule="evenodd"/></g><g><path clip-rule="evenodd" d="m334.587 199.524 12.218 12.19 28.857-28.858-12.189-12.189z" fill="#6a5c6b" fill-rule="evenodd"/></g><g><path clip-rule="evenodd" d="m363.59 153.714h40.81v17.238h-40.81z" fill="#6a5c6b" fill-rule="evenodd" transform="matrix(.707 -.707 .707 .707 -2.319 319.067)"/></g><g><path clip-rule="evenodd" d="m421.186 112.923-28.857 28.886 12.189 12.19 28.857-28.858z" fill="#6a5c6b" fill-rule="evenodd"/></g><g><path clip-rule="evenodd" d="m473.089 120.095 27.836-105.055c.51-1.928.709-2.665-1.474-2.608h-23.641c-3.005 0-5.131.794-7.257 2.891l-7.398 7.427-26.334 26.335-26.334 26.306-12.416 12.444 37.304 37.305h31.068c4.592.001 7.285.086 8.646-5.045z" fill="#ffbc8a" fill-rule="evenodd"/></g><g><path clip-rule="evenodd" d="m473.089 120.095 27.836-105.055c.51-1.928.709-2.665-1.474-2.608h-16.469l-24.633 92.922c-1.361 5.131-4.054 5.046-8.646 5.046h-31.068l14.74 14.741h31.068c4.592 0 7.285.085 8.646-5.046z" fill="#f5a96c" fill-rule="evenodd"/></g><g><path clip-rule="evenodd" d="m251.759 232.152 18.68-18.709c-10.715-20.637-15.817-47.68-.879-88.245 5.443-14.826 3.912-15.818-9.524-11.254-53.065 18.086-65.509 39.261-86.485 75.801-10.687 18.567-22.592 42.181-40.989 56.156-22.621 17.122-49.096 11.537-73.928 25.966-38.069 22.139-75.94 80.053-18.227 137.768l67.748 67.75c46.177 46.178 108.794 30.247 133.144-24.152 6.066-13.493 11.452-28.574 14.343-37.022 5.754-16.838 14.003-31.182 38.863-36.058 25.852-5.074 39.799-9.78 52.838-23.698 33.109-35.292-12.444-23.33-25.739-29.906-11.82-5.84-13.521-13.465-11.877-25.881 2.239-16.838.709-31.806-7.88-43.995l-12.784 12.785-24.718 24.719c-2.268 2.268-6.009 2.268-8.277 0l-29.027-29.056c-2.268-2.268-2.296-5.981 0-8.249zm-19.191 96.239c6.321 6.321 6.321 16.668 0 22.99s-16.668 6.321-22.989 0l-39.742-39.743c-6.321-6.321-6.321-16.668 0-22.99s16.639-6.321 22.961 0zm-51.846 51.847c6.321 6.321 6.321 16.668 0 22.99-6.321 6.321-16.668 6.321-22.989 0l-39.742-39.743c-6.321-6.321-6.321-16.668 0-22.99 6.321-6.321 16.639-6.321 22.961 0z" fill="#ffbc8a" fill-rule="evenodd"/></g><g><path clip-rule="evenodd" d="m209.579 351.381c6.321 6.321 16.668 6.321 22.989 0s6.321-16.668 0-22.99l-39.77-39.743c-6.321-6.321-16.639-6.321-22.961 0s-6.321 16.668 0 22.99z" fill="#eff6ff" fill-rule="evenodd"/></g><g><path clip-rule="evenodd" d="m180.722 403.228c6.321-6.321 6.321-16.668 0-22.99l-39.77-39.743c-6.321-6.321-16.639-6.321-22.961 0-6.321 6.321-6.321 16.668 0 22.99l39.742 39.743c6.322 6.322 16.668 6.322 22.989 0z" fill="#eff6ff" fill-rule="evenodd"/></g><g><path clip-rule="evenodd" d="m232.568 351.381c6.321-6.321 6.321-16.668 0-22.99l-19.871-19.871c6.321 6.321 6.321 16.668 0 22.99-6.321 6.293-16.639 6.321-22.961.028l.028.028 19.814 19.815c6.322 6.321 16.669 6.321 22.99 0z" fill="#d9eeff" fill-rule="evenodd"/></g><g><path clip-rule="evenodd" d="m180.722 403.228c6.321-6.321 6.321-16.668 0-22.99l-19.871-19.871c6.321 6.321 6.321 16.668 0 22.99-6.321 6.293-16.639 6.321-22.961.028l.028.028 19.814 19.815c6.323 6.322 16.669 6.322 22.99 0z" fill="#d9eeff" fill-rule="evenodd"/></g><g><path clip-rule="evenodd" d="m241.299 453.233c6.066-13.493 11.452-28.574 14.343-37.022 5.754-16.838 14.003-31.182 38.863-36.058 25.852-5.074 39.799-9.78 52.838-23.698 25.654-27.355 4.082-26.335-13.124-27.525-1.843 2.636-4.394 5.698-7.682 9.241-13.039 13.89-26.986 18.624-52.838 23.67-24.86 4.876-33.137 19.248-38.863 36.086-2.891 8.447-8.277 23.5-14.343 37.022-21.798 48.672-74.211 66.559-118.092 36.681l5.754 5.755c46.177 46.177 108.794 30.246 133.144-24.152z" fill="#f5a96c" fill-rule="evenodd"/></g><g><path d="m237.872 356.684c9.262-9.263 9.262-24.334-.002-33.598l-39.771-39.743c-4.474-4.473-10.433-6.936-16.781-6.936-6.35 0-12.31 2.463-16.784 6.938-9.263 9.263-9.263 24.333 0 33.596l39.742 39.743c4.631 4.631 10.714 6.947 16.798 6.947s12.167-2.315 16.798-6.947zm-62.731-50.349c-1.641-1.641-2.544-3.84-2.544-6.191 0-2.352.903-4.551 2.544-6.192s3.834-2.544 6.177-2.544c2.342 0 4.536.903 6.177 2.544 0 0 .001.001.002.002l39.769 39.741c3.414 3.414 3.414 8.969 0 12.383s-8.969 3.413-12.383 0z"/><path d="m186.024 374.933-39.769-39.741c-4.474-4.474-10.434-6.938-16.783-6.938-6.35 0-12.31 2.464-16.784 6.938-9.262 9.263-9.262 24.334 0 33.596l39.742 39.743c4.474 4.474 10.439 6.938 16.798 6.938s12.324-2.464 16.798-6.938c9.262-9.262 9.262-24.333-.002-33.598zm-10.606 22.992c-1.64 1.641-3.839 2.544-6.19 2.544-2.352 0-4.551-.903-6.191-2.544l-39.742-39.743c-3.414-3.414-3.414-8.969 0-12.383 1.703-1.703 3.94-2.554 6.177-2.554s4.474.851 6.177 2.554c0 0 .001.001.001.002l39.769 39.741c3.414 3.414 3.414 8.969-.001 12.383z"/><path d="m170.773 438.476c-4.142 0-7.486 3.358-7.486 7.5s3.372 7.5 7.514 7.5 7.5-3.358 7.5-7.5-3.358-7.5-7.5-7.5z"/><path d="m203.542 426.315c-4.142 0-7.486 3.358-7.486 7.5s3.372 7.5 7.514 7.5 7.5-3.358 7.5-7.5-3.358-7.5-7.5-7.5z"/><path d="m506.981 8.163c-1.742-2.204-4.292-3.275-7.609-3.23h-23.562c-5.051 0-9.031 1.605-12.562 5.089l-2.108 2.109-9.933-9.933c-2.93-2.929-7.678-2.929-10.607 0s-2.929 7.678 0 10.606l9.936 9.936-15.724 15.73-9.938-9.939c-2.93-2.929-7.678-2.929-10.607 0s-2.929 7.678 0 10.606l9.941 9.941-15.715 15.722-9.957-9.939c-2.934-2.927-7.682-2.922-10.607.01-2.926 2.932-2.922 7.68.01 10.606l9.95 9.932-7.122 7.125-117.947 117.949c-5.781-15.317-8.957-38.112 3.78-72.701 2.805-7.639 5.705-15.538.596-20.774-4.994-5.118-12.405-2.6-19.579-.164-40.505 13.801-58.167 29.729-72.225 49.398-2.408 3.37-1.629 8.054 1.741 10.463 3.37 2.407 8.054 1.628 10.463-1.741 12.728-17.809 28.017-31.369 64.852-43.919.25-.085.491-.167.725-.244-.195.554-.411 1.154-.65 1.804-12.699 34.485-13.097 63.039-1.152 89.328l-39.601 39.602c-2.53 2.5-3.929 5.84-3.94 9.405-.011 3.584 1.377 6.952 3.905 9.48l29.03 29.059c2.603 2.603 6.022 3.904 9.441 3.904 3.42 0 6.839-1.301 9.442-3.904l30.393-30.393c3.192 8.203 3.907 18.155 2.251 30.598-1.657 12.524-.867 25.262 15.988 33.587 5.118 2.533 12.043 2.946 19.375 3.383 3.967.237 10.961.654 13.779 1.739-.577 1.608-2.585 5.494-9.564 12.934-11.674 12.462-24.492 16.694-48.808 21.466-28.737 5.636-38.379 23.032-44.516 40.989-3.296 9.63-8.416 23.759-14.093 36.386-11.083 24.759-30.876 41.436-54.307 45.754-3.972.732-7.949 1.094-11.92 1.094-19.354-.001-38.443-8.61-54.768-24.935l-67.748-67.75c-20.78-20.781-29.835-42.709-26.914-65.175 3.681-28.303 25.792-50.445 43.605-60.805 10.453-6.074 21.309-8.253 32.802-10.561 13.96-2.802 28.396-5.701 41.895-15.917 17.455-13.26 28.983-33.703 39.155-51.738.81-1.436 1.609-2.854 2.401-4.249 2.045-3.602.783-8.18-2.819-10.225s-8.18-.783-10.225 2.819c-.799 1.407-1.606 2.838-2.423 4.287-9.458 16.771-20.178 35.778-35.153 47.155-10.752 8.138-22.911 10.579-35.784 13.163-12.185 2.446-24.785 4.976-37.388 12.299-21.755 12.652-46.562 38.168-50.941 71.838-2.443 18.786.983 47.518 31.182 77.716l67.748 67.75c19.219 19.219 41.948 29.345 65.242 29.344 4.907 0 9.841-.45 14.771-1.358 28.356-5.226 52.15-25.046 65.274-54.366 5.908-13.141 11.2-27.737 14.6-37.671 5.71-16.707 12.975-27.155 33.211-31.124 27.044-5.308 42.451-10.542 56.863-25.927 8.501-9.061 16.685-19.596 12.929-29.03-3.772-9.478-15.679-10.188-27.193-10.875-5-.298-11.223-.67-13.622-1.856-7.672-3.79-9.196-7.356-7.765-18.167 2.354-17.694.437-32.11-5.839-43.853l125.16-125.163h28.18.156c4.528 0 12.733-.118 15.519-10.622l8.589-32.373c1.062-4.004-1.322-8.11-5.326-9.172-4.003-1.063-8.11 1.323-9.172 5.326l-8.446 31.835c-.437.006-.907.004-1.314.006h-28.185l-29.806-29.806 33.287-33.301c.053-.05.109-.094.161-.145.052-.052.097-.109.147-.163l25.917-25.927c.09-.082.184-.157.271-.244.088-.088.165-.182.247-.274l7.115-7.118c.568-.561.74-.73 1.989-.73h16.059l-8.709 32.843c-1.062 4.004 1.323 8.11 5.326 9.172 4.005 1.061 8.11-1.323 9.172-5.327l10.521-39.672c.466-1.77 1.44-5.45-1.199-8.787zm-246.774 279.544-26.685-26.711 18.237-18.237 26.697 26.699zm28.856-28.857-26.698-26.698 18.264-18.265 26.698 26.699zm28.871-28.871-26.698-26.699 18.252-18.253 26.708 26.688zm28.869-28.87-26.708-26.688 18.262-18.263 26.698 26.699zm28.859-28.86-26.698-26.699 18.25-18.25 26.698 26.699zm47.107-47.108-18.25 18.251-26.698-26.699 18.25-18.25z"/><path d="m442.417 73.334c-4.143 0-7.472 3.358-7.472 7.5s3.386 7.5 7.528 7.5 7.5-3.358 7.5-7.5-3.357-7.5-7.5-7.5z"/><path d="m459.085 51.989h-.057c-4.143 0-7.472 3.358-7.472 7.5s3.386 7.5 7.528 7.5 7.5-3.358 7.5-7.5-3.356-7.5-7.499-7.5z"/></g></g></svg>