<svg id="Capa_1" enable-background="new 0 0 513.13 513.13" height="512" viewBox="0 0 513.13 513.13" width="512" xmlns="http://www.w3.org/2000/svg"><g><path d="m259.312 31.934c-15.1-15.1-35.96-24.43-58.99-24.43-46.07 0-83.41 37.34-83.41 83.41v12.77 40.9c0 19.54 9.45 37.86 25.37 49.19l10.27 7.3 13.169 10.496h73.301l9.069-10.496 10.27-7.3c15.92-11.33 25.38-29.65 25.38-49.19v-40.9-12.77c.001-23.04-9.339-43.89-24.429-58.98z" fill="#b5adb6"/><path d="m174.595 193.774c-15.92-11.33-25.37-29.65-25.37-49.19v-40.9-12.77c0-40.541 28.97-74.32 67.304-81.844-5.229-1.026-10.679-1.566-16.208-1.566-46.07 0-83.41 37.34-83.41 83.41v12.77 40.9c0 19.54 9.45 37.86 25.37 49.19l10.27 7.3 13.169 10.496h32.313l-13.169-10.496z" fill="#a79ba7"/><g><path d="m283.738 144.585h-166.827c-5.531 0-10.014-4.483-10.014-10.014v-20.876c0-5.531 4.483-10.014 10.014-10.014h166.827c5.531 0 10.014 4.483 10.014 10.014v20.876c0 5.531-4.484 10.014-10.014 10.014z" fill="#fef056"/><path d="m144.086 134.571v-20.876c0-5.531 4.483-10.014 10.014-10.014h-37.189c-5.531 0-10.014 4.483-10.014 10.014v20.876c0 5.531 4.483 10.014 10.014 10.014h37.189c-5.531 0-10.014-4.483-10.014-10.014z" fill="#fee903"/><path d="m200.324 301.816c-8.45 0-15.301-6.85-15.301-15.301v-42.758c0-8.45 6.85-15.301 15.301-15.301 8.45 0 15.301 6.85 15.301 15.301v42.758c0 8.451-6.85 15.301-15.301 15.301z" fill="#efedef"/><path d="m238.993 390.976 9.099-189.902h-95.54l9.108 189.902 4.687 1.579v9.708l-3.968 3.713.703 14.658c.31 6.58 5.75 11.76 12.34 11.76h49.8c6.6 0 12.03-5.18 12.35-11.76l.702-14.658-3.439-1.893v-9.688z" fill="#a6e7f0"/><path d="m195.554 420.634-10.53-219.56h-32.472l9.108 189.902 4.331 3.58v9.25l-3.612 2.17.703 14.658c.31 6.58 5.75 11.76 12.34 11.76h32.472c-6.59 0-12.03-5.18-12.34-11.76z" fill="#6bd9e7"/><path d="m238.274 405.976.719-15h-77.334l.72 15z" fill="#f9f7f8"/><ellipse cx="70.807" cy="337.853" fill="#a6e7f0" rx="18.811" ry="14.528" transform="matrix(.842 -.54 .54 .842 -171.157 91.659)"/><g id="XMLID_389_"><g fill="#fd8087"><path d="m453.682 153.812c4.33 6.76.75 16.78-7.99 22.39-8.75 5.61-19.35 4.68-23.68-2.08-4.33-6.75-.75-16.77 7.99-22.38 8.75-5.61 19.35-4.68 23.68 2.07z"/><path d="m387.993 164.016c4.33 6.75.75 16.78-7.99 22.38-8.75 5.61-19.35 4.68-23.68-2.07-4.33-6.76-.75-16.78 7.99-22.39 8.75-5.61 19.35-4.68 23.68 2.08z"/></g></g><g id="XMLID_397_"><g><path d="m108.352 286.654v32.51c0 2.87-3.47 4.31-5.5 2.28l-29.37-29.37v-33.5c0-2.99 3.63-4.5 5.75-2.38l28.18 28.18c.6.61.94 1.42.94 2.28z" fill="#a6e7f0"/></g></g></g><path d="m194.131 390.976h-32.472l.72 15h32.472z" fill="#efedef"/></g><g><path d="m177.524 243.758v42.758c0 12.572 10.229 22.801 22.801 22.801s22.8-10.229 22.8-22.801v-42.758c0-12.572-10.228-22.801-22.8-22.801s-22.801 10.229-22.801 22.801zm30.601 0v42.758c0 4.302-3.499 7.801-7.8 7.801s-7.801-3.499-7.801-7.801v-42.758c0-4.302 3.5-7.801 7.801-7.801s7.8 3.499 7.8 7.801z"/><path d="m467.442 205.734c-4.142 0-7.5 3.357-7.5 7.5v252.498c0 17.864-14.534 32.397-32.398 32.397s-32.398-14.533-32.398-32.397v-134.513c0-28.964-23.564-52.527-52.528-52.527s-52.528 23.563-52.528 52.527v125.964c0 22.578-18.369 40.947-40.948 40.947s-40.948-18.369-40.948-40.947v-17.288h17.03c10.614 0 19.326-8.305 19.834-18.906l2.301-47.984c.199-4.138-2.995-7.652-7.132-7.851-4.149-.18-7.652 2.995-7.851 7.132l-.896 18.69h-62.314l-8.745-182.401h79.805l-6.318 131.779c-.199 4.138 2.995 7.652 7.132 7.851.123.006.244.009.365.009 3.977 0 7.293-3.126 7.485-7.141l6.521-135.999 7.297-5.189c16.247-11.555 26.536-29.701 28.266-49.382 6.052-2.761 10.276-8.856 10.276-15.93v-20.876c0-6.971-4.104-12.986-10.014-15.803v-6.979c.002-50.131-40.782-90.915-90.912-90.915-27.158 0-52.684 12.008-70.031 32.943-2.643 3.189-2.2 7.917.99 10.561 3.189 2.641 7.917 2.2 10.56-.99 14.489-17.486 35.805-27.514 58.481-27.514 41.858 0 75.913 34.055 75.913 75.914v5.268h-14.162c-4.142 0-7.5 3.357-7.5 7.5s3.358 7.5 7.5 7.5h21.662c1.386 0 2.514 1.128 2.514 2.514v20.876c0 1.387-1.128 2.515-2.514 2.515h-166.826c-1.386 0-2.514-1.128-2.514-2.515v-20.876c0-1.386 1.127-2.514 2.514-2.514h113.203c4.142 0 7.5-3.357 7.5-7.5s-3.358-7.5-7.5-7.5h-105.703v-5.268c0-7.781 1.178-15.466 3.501-22.838 1.245-3.95-.949-8.162-4.899-9.407-3.952-1.245-8.163.949-9.407 4.899-2.783 8.832-4.194 18.033-4.194 27.346v6.979c-5.91 2.817-10.014 8.832-10.014 15.803v20.876c0 7.074 4.224 13.169 10.276 15.93 1.73 19.681 12.019 37.827 28.266 49.383l7.298 5.19 10.352 215.914c.508 10.602 9.221 18.906 19.834 18.906h17.771v17.288c0 30.85 25.098 55.947 55.948 55.947s55.948-25.098 55.948-55.947v-125.964c0-20.692 16.835-37.527 37.528-37.527s37.528 16.835 37.528 37.527v134.514c0 26.135 21.263 47.397 47.398 47.397s47.398-21.263 47.398-47.397v-252.499c-.001-4.142-3.359-7.5-7.501-7.5zm-342.467-53.648h150.696c-2.043 14.204-9.801 27.143-21.656 35.574l-8.315 5.914h-90.751l-8.317-5.915c-11.854-8.43-19.615-21.369-21.657-35.573zm45.597 268.184-.685-14.294h60.876l-.685 14.294c-.125 2.594-2.256 4.625-4.852 4.625h-49.801c-2.598 0-4.729-2.032-4.853-4.625z"/><path d="m368.16 196.524c5.264-.001 10.837-1.566 15.888-4.805 5.619-3.603 9.851-8.771 11.916-14.553.885-2.478 1.329-4.993 1.352-7.449.005-.108.016-.215.016-.324v-33.153l50.688-13.836v18.935c-1.244-.323-2.535-.55-3.865-.667-6.119-.538-12.579 1.152-18.198 4.756-5.619 3.603-9.851 8.771-11.916 14.553-2.275 6.371-1.671 13.002 1.656 18.191 3.328 5.19 9.102 8.507 15.841 9.098.744.065 1.492.098 2.244.098 5.431 0 11.018-1.688 15.954-4.853 5.619-3.603 9.851-8.771 11.916-14.553.885-2.479 1.329-4.997 1.352-7.455.004-.103.016-.204.016-.308v-75.62c0-4.19-1.91-8.053-5.241-10.596-3.331-2.544-7.559-3.369-11.604-2.267l-54.022 14.747c-5.783 1.578-9.822 6.867-9.822 12.862v51.271c-6.849-1.754-14.97-.511-22.063 4.036-12.213 7.83-16.816 22.52-10.26 32.746 3.846 5.997 10.687 9.146 18.152 9.146zm79.366-33.606c-.941 2.635-3.086 5.176-5.885 6.971-2.8 1.794-6.008 2.679-8.791 2.439-1.22-.107-3.429-.542-4.525-2.252-1.096-1.709-.569-3.897-.157-5.05.941-2.635 3.086-5.176 5.886-6.971 2.494-1.6 5.309-2.479 7.865-2.479.313 0 .622.013.925.04 1.219.106 3.429.541 4.525 2.25 1.096 1.71.569 3.9.157 5.052zm.494-76.155v20.093l-50.688 13.836v-20.092zm-79.655 80.497c2.713-1.739 5.497-2.495 7.851-2.495 2.514 0 4.538.861 5.465 2.307 1.096 1.709.568 3.898.157 5.051-.941 2.635-3.086 5.176-5.886 6.971-5.61 3.598-11.521 2.986-13.315.189-1.795-2.8.116-8.426 5.728-12.023z"/><path d="m92.035 250.894c-3.12-3.117-7.769-4.043-11.842-2.355-4.076 1.688-6.709 5.63-6.709 10.041v56.69c-6.847-1.75-14.963-.506-22.051 4.039-12.213 7.831-16.815 22.521-10.259 32.745 3.845 5.997 10.687 9.147 18.152 9.147 5.264 0 10.837-1.566 15.887-4.805 8.329-5.34 13.114-13.87 13.238-21.999.021-.23.033-24.218.033-24.218l16.566 16.566c3.078 3.077 7.665 3.991 11.685 2.324 4.021-1.666 6.618-5.554 6.618-9.905v-32.512c0-2.862-1.114-5.555-3.14-7.582zm-24.919 92.876c-5.611 3.596-11.521 2.987-13.315.188s.118-8.424 5.729-12.022c2.713-1.739 5.496-2.495 7.85-2.495 2.514 0 4.538.861 5.465 2.307 1.794 2.798-.117 8.424-5.729 12.022zm41.237-34.935-19.869-19.868v-20.41l19.869 19.868z"/></g></svg>