<?xml version="1.0" encoding="iso-8859-1"?>
<!-- Generator: Adobe Illustrator 21.0.0, SVG Export Plug-In . SVG Version: 6.00 Build 0)  -->
<svg xmlns="http://www.w3.org/2000/svg" xmlns:xlink="http://www.w3.org/1999/xlink" version="1.1" id="Capa_1" x="0px" y="0px" viewBox="0 0 512.001 512.001" style="enable-background:new 0 0 512.001 512.001;" xml:space="preserve" width="512" height="512">
<g>
	<g>
		<g>
			<g>
				<ellipse style="fill:#FF5073;" cx="54.757" cy="390.465" rx="47.243" ry="48.906"/>
			</g>
			<path style="fill:#EB3D60;" d="M54.757,341.559c-7.946,0-15.428,2.04-22,5.628C47.765,355.379,58,371.68,58,390.465     s-10.236,35.086-25.243,43.278c6.572,3.587,14.054,5.628,22,5.628c26.092,0,47.243-21.896,47.243-48.906     S80.849,341.559,54.757,341.559z"/>
			<g>
				<g>
					<g>
						<ellipse style="fill:#ABEEFF;" cx="310.757" cy="459.465" rx="47.243" ry="48.906"/>
					</g>
					<path style="fill:#6EE2FF;" d="M310.757,410.559c-7.946,0-15.428,2.04-22,5.628C303.765,424.379,314,440.68,314,459.465       s-10.236,35.086-25.243,43.278c6.572,3.587,14.054,5.628,22,5.628c26.092,0,47.243-21.896,47.243-48.906       S336.849,410.559,310.757,410.559z"/>
					<g>
						<ellipse style="fill:#86DF75;" cx="226.757" cy="205.465" rx="47.243" ry="48.906"/>
					</g>
					<path style="fill:#3FD14D;" d="M226.757,156.559c-7.946,0-15.428,2.04-22,5.628C219.765,170.379,230,186.68,230,205.465       s-10.236,35.086-25.243,43.278c6.572,3.587,14.054,5.628,22,5.628c26.092,0,47.243-21.896,47.243-48.906       S252.849,156.559,226.757,156.559z"/>
					<g>
						<ellipse style="fill:#ABEEFF;" cx="461.757" cy="392.465" rx="44.243" ry="45.8"/>
					</g>
					<path style="fill:#6EE2FF;" d="M461.757,346.664c-7.441,0-14.449,1.91-20.603,5.27c14.055,7.672,23.64,22.939,23.64,40.53       c0,17.592-9.586,32.858-23.64,40.53c6.154,3.36,13.162,5.27,20.603,5.27c24.435,0,44.243-20.506,44.243-45.8       C506,367.17,486.192,346.664,461.757,346.664z"/>
				</g>
				<path style="fill:#FFCA52;" d="M430.381,169.12c-5.856-30.516-10.603-35.264-41.12-41.12      c30.516-5.856,35.264-10.603,41.12-41.119c5.856,30.516,10.603,35.264,41.12,41.119      C440.984,133.857,436.237,138.604,430.381,169.12z"/>
				<path style="fill:#FFCA52;" d="M205.381,400.544c-5.856-30.516-10.603-35.264-41.119-41.12      c30.516-5.856,35.264-10.603,41.119-41.12c5.856,30.516,10.603,35.264,41.12,41.12      C215.984,365.281,211.237,370.028,205.381,400.544z"/>
				<path style="fill:#FFCA52;" d="M90.271,79.455c30.384-6.507,35.029-11.354,40.231-41.989      c6.507,30.384,11.354,35.029,41.989,40.231c-30.384,6.507-35.029,11.354-40.231,41.989      C125.753,89.302,120.905,84.658,90.271,79.455z"/>
			</g>
			<polygon style="fill:#3FD14D;" points="348,90.001 348,42.001 268,8.001 268,56.001    "/>
			<polygon style="fill:#6EE2FF;" points="351,263.001 504,197.001 504,244.001 351,310.001    "/>
		</g>
	</g>
	<g>
		<g>
			<path d="M512,195.936c0-5.237-5.618-8.971-10.458-6.892l-153.977,66.103c-2.755,1.183-4.542,3.893-4.542,6.892V422.29     c-9.232-9.487-21.965-15.362-36.005-15.362c-28.125,0-51.005,23.567-51.005,52.536s22.881,52.536,51.005,52.536     c28.124,0,51.005-23.567,51.005-52.536c0-0.178-0.011-0.353-0.013-0.531c0.003-0.087,0.013-0.172,0.013-0.259V314.032     L497,254.799v101.389c-9.232-9.487-21.965-15.361-36.005-15.361c-28.125,0-51.005,23.567-51.005,52.536     c0,20.508,11.703,39.271,29.815,47.8c8.72,4.106,15.138-9.451,6.391-13.57c-12.882-6.066-21.206-19.502-21.206-34.23     c0-20.697,16.152-37.536,36.005-37.536c19.853,0,36.005,16.838,36.005,37.536c0,14.124-7.49,26.92-19.548,33.396     c-8.503,4.566-1.421,17.789,7.097,13.215C501.481,430.88,512,413.02,512,393.362c0-0.178-0.011-0.353-0.013-0.531     c0.003-0.087,0.013-0.172,0.013-0.259V195.936z M307.019,497.001c-19.854,0-36.005-16.839-36.005-37.536     s16.152-37.536,36.005-37.536c19.853,0,36.005,16.839,36.005,37.536S326.872,497.001,307.019,497.001z M358.024,297.727v-30.746     L497,207.318v31.176L358.024,297.727z"/>
			<path d="M94.511,205.749c-4.142,0-7.5,3.358-7.5,7.5V353.68c-9.232-9.487-21.965-15.362-36.005-15.362     c-9.608,0-18.971,2.768-27.075,8.005c-8.107,5.238,0.022,17.847,8.141,12.599c5.674-3.666,12.221-5.604,18.935-5.604     c19.854,0,36.005,16.839,36.005,37.536S70.859,428.39,51.005,428.39C31.152,428.39,15,411.551,15,390.854c0-9.652-15-9.668-15,0     c0,28.969,22.881,52.536,51.005,52.536c28.125,0,51.005-23.567,51.005-52.536c0-0.178-0.011-0.353-0.013-0.531     c0.003-0.087,0.013-0.172,0.013-0.259V213.249C102.011,209.107,98.653,205.749,94.511,205.749z"/>
			<path d="M387.848,135.366c27.575,5.292,29.875,7.592,35.167,35.167c1.511,7.868,13.219,7.878,14.731,0     c5.292-27.575,7.592-29.876,35.167-35.167c7.868-1.511,7.878-13.219,0-14.731c-27.575-5.292-29.876-7.592-35.167-35.167     c-1.511-7.868-13.219-7.878-14.731,0c-5.292,27.575-7.592,29.876-35.167,35.167C379.98,122.146,379.97,133.854,387.848,135.366z      M430.381,113.526c3.35,6.672,7.803,11.125,14.475,14.475c-6.672,3.35-11.125,7.803-14.475,14.475     c-3.35-6.672-7.803-11.125-14.475-14.475C422.578,124.651,427.031,120.197,430.381,113.526z"/>
			<path d="M247.914,352.059c-27.575-5.292-29.876-7.592-35.167-35.167c-1.511-7.868-13.219-7.878-14.731,0     c-5.292,27.575-7.592,29.876-35.167,35.167c-7.868,1.511-7.878,13.219,0,14.731c27.575,5.292,29.875,7.592,35.167,35.167     c1.511,7.868,13.219,7.878,14.731,0c5.292-27.575,7.592-29.875,35.167-35.167C255.782,365.28,255.791,353.572,247.914,352.059z      M205.381,373.9c-3.35-6.672-7.803-11.125-14.475-14.475c6.672-3.35,11.125-7.804,14.475-14.475     c3.35,6.671,7.804,11.125,14.475,14.475C213.184,362.775,208.73,367.228,205.381,373.9z"/>
			<path d="M179.989,77.538c-0.077-3.596-2.696-6.632-6.242-7.234c-27.682-4.701-30.032-6.952-35.911-34.408     c-1.676-7.832-13.385-7.591-14.728,0.314c-4.701,27.682-6.952,30.031-34.408,35.911c-7.835,1.677-7.594,13.385,0.314,14.728     c27.682,4.701,30.031,6.952,35.911,34.408c1.681,7.851,13.371,7.677,14.728-0.314c4.701-27.682,6.952-30.031,34.408-35.911     C177.579,84.279,180.066,81.134,179.989,77.538z M131.69,93.049c-3.491-6.599-8.04-10.957-14.781-14.163     c6.599-3.491,10.956-8.04,14.163-14.781c3.491,6.599,8.04,10.957,14.781,14.163C139.254,81.759,134.896,86.307,131.69,93.049z"/>
			<path d="M223.558,257.463c28.124,0,51.005-23.567,51.005-52.536c0-0.178-0.011-0.353-0.013-0.531     c0.003-0.087,0.013-0.172,0.013-0.259V66.71l19.483,8.35c8.871,3.803,14.795-9.978,5.909-13.787l-25.212-10.805V18.875     l67.202,28.801v31.593l-7.376-3.161c-8.872-3.802-14.795,9.978-5.909,13.787l17.831,7.642c4.833,2.071,10.455-1.627,10.455-6.894     V42.73c0-3-1.788-5.712-4.545-6.894L270.197,0.607c-4.904-2.103-10.634,1.514-10.634,6.894v160.251     c-9.232-9.487-21.965-15.362-36.005-15.362c-28.124,0-51.005,23.567-51.005,52.536S195.434,257.463,223.558,257.463z      M223.558,167.39c19.853,0,36.005,16.839,36.005,37.536s-16.152,37.536-36.005,37.536s-36.005-16.839-36.005-37.536     S203.705,167.39,223.558,167.39z"/>
		</g>
	</g>
</g>















</svg>
