<svg id="Capa_1" enable-background="new 0 0 506.581 506.581" height="512" viewBox="0 0 506.581 506.581" width="512" xmlns="http://www.w3.org/2000/svg"><g><g><circle cx="226.69" cy="271.664" fill="#b5adb6" r="219.16"/><circle cx="226.69" cy="271.664" fill="#a79ba7" r="177.16"/><circle cx="226.69" cy="271.664" fill="#918291" r="138.16"/><circle cx="226.69" cy="271.664" fill="#fef056" r="102.16"/><path d="m176.201 271.664c0-47.496 32.413-87.418 76.324-98.862-8.252-2.151-16.91-3.299-25.836-3.299-56.421 0-102.16 45.739-102.16 102.16s45.739 102.16 102.16 102.16c8.926 0 17.583-1.148 25.836-3.299-43.911-11.442-76.324-51.364-76.324-98.86z" fill="#fee903"/><circle cx="226.69" cy="271.664" fill="#a6e7f0" r="72.16"/><path d="m201.935 339.448c-16.02-18.037-25.734-41.761-25.734-67.784s9.714-49.747 25.734-67.784c-27.649 10.115-47.406 36.676-47.406 67.784s19.757 57.669 47.406 67.784z" fill="#6bd9e7"/><circle cx="226.69" cy="271.664" fill="#918291" r="25.811"/><g><path d="m474.026 150.617-24.575-5.913c-5.387-1.296-8.703-6.714-7.407-12.101l12.668-52.644c1.296-5.387 6.714-8.703 12.101-7.407l24.575 5.913c5.387 1.296 8.703 6.714 7.407 12.101l-12.668 52.643c-1.296 5.388-6.714 8.704-12.101 7.408z" fill="#cbc4cc"/><ellipse cx="333.379" cy="109.858" fill="#fd8087" rx="21.426" ry="16.548" transform="matrix(.842 -.54 .54 .842 -6.564 197.32)"/><g id="XMLID_387_"><g><path d="m393.208 51.197v39.412c0 2.516-3.042 3.776-4.821 1.997l-34.889-34.889v-40.183c0-2.667 3.225-4.003 5.111-2.117l33.764 33.764c.534.535.835 1.26.835 2.016z" fill="#fd8087"/></g></g></g><path d="m360.129 392.727-38.153 22.713c-4.09 2.435-9.316 1.744-12.634-1.669l-6.361-6.546c-3.317-3.413-3.858-8.657-1.307-12.676l23.794-37.488c3.56-5.609 11.425-6.42 16.055-1.656l20.721 21.321c4.629 4.764 3.594 12.603-2.115 16.001z" fill="#cbc4cc"/></g><g><path d="m74.738 179.104c-3.624-2.007-8.187-.696-10.195 2.927-15.116 27.286-23.105 58.281-23.105 89.634 0 102.148 83.104 185.252 185.252 185.252 23.036 0 45.532-4.188 66.864-12.447 3.862-1.496 5.781-5.84 4.286-9.702-1.496-3.862-5.841-5.782-9.702-4.286-19.598 7.588-40.271 11.436-61.448 11.436-93.877 0-170.252-76.375-170.252-170.252 0-28.815 7.34-57.298 21.227-82.366 2.007-3.625.697-8.19-2.927-10.196z"/><path d="m89.04 166.698c2.172 0 4.327-.938 5.81-2.751 32.509-39.741 80.563-62.534 131.84-62.534 18.949 0 37.569 3.097 55.347 9.204 3.914 1.346 8.184-.738 9.529-4.656 1.346-3.917-.738-8.184-4.656-9.529-19.348-6.647-39.609-10.019-60.22-10.019-55.795 0-108.081 24.798-143.451 68.036-2.623 3.206-2.15 7.932 1.057 10.554 1.393 1.141 3.074 1.695 4.744 1.695z"/><path d="m403.459 260.456c.261 0 .524-.014.789-.042 4.12-.431 7.11-4.12 6.679-8.239-4.219-40.311-21.142-77.323-48.941-107.037-2.829-3.024-7.575-3.185-10.601-.353-3.024 2.83-3.183 7.576-.353 10.601 25.548 27.308 41.101 61.316 44.977 98.35.404 3.854 3.658 6.72 7.45 6.72z"/><path d="m350.526 334.105c3.796 1.663 8.217-.061 9.881-3.855 8.126-18.521 12.246-38.232 12.246-58.585 0-80.483-65.479-145.962-145.963-145.962s-145.962 65.479-145.962 145.962c0 80.484 65.479 145.963 145.962 145.963 15.65 0 31.068-2.473 45.827-7.351 3.933-1.3 6.067-5.542 4.768-9.475-1.3-3.932-5.54-6.068-9.475-4.768-13.237 4.375-27.072 6.593-41.12 6.593-72.213 0-130.962-58.75-130.962-130.963s58.75-130.962 130.962-130.962 130.963 58.749 130.963 130.962c0 18.265-3.695 35.948-10.982 52.56-1.665 3.793.061 8.217 3.855 9.881z"/><path d="m336.35 271.664c0-60.467-49.193-109.66-109.66-109.66s-109.66 49.193-109.66 109.66c0 19.291 5.084 38.268 14.704 54.879 2.076 3.586 6.667 4.809 10.249 2.731 3.584-2.075 4.808-6.664 2.732-10.249-8.298-14.329-12.684-30.707-12.684-47.361 0-52.195 42.464-94.66 94.66-94.66 52.195 0 94.66 42.465 94.66 94.66s-42.465 94.66-94.66 94.66c-23.427 0-45.911-8.627-63.309-24.292-3.078-2.77-7.82-2.521-10.592.556-2.771 3.078-2.523 7.82.556 10.593 20.157 18.148 46.206 28.144 73.345 28.144 60.466-.001 109.659-49.194 109.659-109.661z"/><path d="m275.957 218.463c2.489-3.312 1.822-8.013-1.488-10.502-13.887-10.439-30.408-15.957-47.778-15.957-43.925 0-79.66 35.735-79.66 79.66s35.735 79.66 79.66 79.66 79.66-35.735 79.66-79.66c0-12.748-3.118-25.456-9.017-36.753-1.919-3.672-6.45-5.095-10.12-3.177-3.672 1.918-5.094 6.448-3.177 10.12 4.853 9.293 7.313 19.322 7.313 29.81 0 35.653-29.007 64.66-64.66 64.66-35.654 0-64.66-29.007-64.66-64.66s29.006-64.66 64.66-64.66c14.093 0 27.498 4.477 38.765 12.947 3.312 2.488 8.013 1.822 10.502-1.488z"/><path d="m193.379 271.664c0 18.368 14.943 33.312 33.311 33.312s33.31-14.944 33.31-33.312-14.943-33.312-33.311-33.312-33.31 14.944-33.31 33.312zm51.622 0c0 10.097-8.214 18.312-18.311 18.312s-18.311-8.215-18.311-18.312 8.214-18.312 18.311-18.312 18.311 8.216 18.311 18.312z"/><path d="m503.995 79.067c-2.444-3.995-6.299-6.798-10.852-7.894l-24.574-5.913c-4.551-1.096-9.261-.353-13.255 2.092-3.995 2.445-6.798 6.299-7.894 10.852l-12.668 52.645c-2.261 9.399 3.546 18.887 12.944 21.147l4.954 1.192-12.581 41.629c-11.086-30.836-28.894-59.125-52.683-83.034-2.923-2.936-7.672-2.948-10.606-.026-2.937 2.921-2.948 7.67-.026 10.606 27.474 27.613 46.408 61.48 55.483 98.371l-21.807 72.156c-.148.491-.412.949-.764 1.327l-57.299 61.584-5.466-5.625c-3.816-3.927-9.128-5.858-14.576-5.295-5.447.562-10.255 3.536-13.189 8.159l-23.794 37.488c-4.43 6.979-3.5 15.994 2.262 21.924l6.36 6.544c3.455 3.556 8.068 5.405 12.74 5.405 3.119 0 6.266-.824 9.109-2.518l38.153-22.713c4.705-2.802 7.815-7.521 8.532-12.951.718-5.429-1.06-10.795-4.876-14.722l-4.788-4.927 57.813-62.136c1.903-2.044 3.336-4.538 4.143-7.209l12.9-42.683c.451 5.666.691 11.375.691 17.121 0 116.727-94.964 211.69-211.69 211.69-116.727.002-211.691-94.962-211.691-211.689s94.964-211.69 211.69-211.69c28.1 0 55.409 5.427 81.167 16.131 3.826 1.592 8.215-.223 9.804-4.048 1.59-3.825-.223-8.214-4.048-9.804-27.592-11.466-56.837-17.279-86.923-17.279-60.551 0-117.478 23.58-160.294 66.396-42.816 42.816-66.396 99.743-66.396 160.294s23.58 117.479 66.396 160.294c42.816 42.816 99.743 66.396 160.294 66.396 60.552 0 117.479-23.58 160.294-66.396 42.816-42.815 66.396-99.742 66.396-160.294 0-17.189-1.909-34.089-5.615-50.46l19.494-64.501 5.011 1.206h.001c1.373.33 2.747.488 4.101.488 7.915 0 15.116-5.407 17.047-13.433l12.668-52.645c1.096-4.551.353-9.259-2.092-13.252zm-146.368 305.189c-.065.5-.327 1.427-1.335 2.027l-38.152 22.713c-1.113.661-2.52.475-3.42-.453l-6.36-6.544c-.901-.928-1.048-2.339-.354-3.431l23.794-37.488c.629-.991 1.563-1.226 2.064-1.277.085-.009.184-.016.293-.016.532 0 1.31.146 1.987.844l20.721 21.321c.817.842.829 1.805.762 2.304zm133.876-295.444-12.668 52.645c-.327 1.357-1.698 2.194-3.055 1.869l-24.575-5.914c-1.357-.326-2.196-1.697-1.869-3.055l12.668-52.645c.213-.887.806-1.362 1.14-1.566.334-.205 1.025-.515 1.915-.302l24.575 5.913c.887.214 1.362.806 1.567 1.14s.516 1.027.302 1.915z"/><path d="m309.031 125.471c3.614 5.638 9.904 9.241 17.257 9.886.816.072 1.64.107 2.466.107 5.986 0 12.152-1.865 17.606-5.362 6.207-3.979 10.879-9.679 13.153-16.048 1.044-2.922 1.527-5.892 1.475-8.771.001-.053.008-.104.008-.157v-29.303l20.647 20.647c2.143 2.142 4.986 3.276 7.888 3.276 1.44 0 2.896-.279 4.286-.855 4.188-1.735 6.895-5.785 6.895-10.318v-37.031c0-2.985-1.163-5.791-3.271-7.897l-32.094-32.094c-3.254-3.254-8.102-4.216-12.354-2.457-4.25 1.761-6.997 5.872-6.997 10.473v65.896c-1.749-.557-3.598-.934-5.521-1.103-6.733-.588-13.866 1.274-20.073 5.255-13.427 8.609-18.528 24.694-11.371 35.856zm76.681-46.146-24.716-24.717v-26.193l24.716 24.715zm-57.214 22.916c3.007-1.928 6.416-2.988 9.526-2.988.385 0 .766.017 1.14.049 1.579.139 4.451.718 5.94 3.04 1.488 2.322.816 5.174.283 6.667-1.147 3.214-3.744 6.299-7.123 8.466-3.379 2.166-7.27 3.239-10.666 2.939-1.58-.139-4.451-.718-5.94-3.039-2.602-4.057.594-11.129 6.84-15.134z"/></g></g></svg>